<?xml version="1.0" encoding="UTF-8"?>
<!-- Generator: Adobe Illustrator 27.8.1, SVG Export Plug-In . SVG Version: 6.00 Build 0)  -->
<svg xmlns="http://www.w3.org/2000/svg" xmlns:xlink="http://www.w3.org/1999/xlink" version="1.1" id="レイヤー_1" x="0px" y="0px" viewBox="0 0 800 137" style="enable-background:new 0 0 800 137;" xml:space="preserve">
<style type="text/css">
	.st0{fill:#F29438;}
	.st1{fill:none;stroke:#F29438;stroke-width:6.7183;stroke-linecap:round;stroke-miterlimit:10;}
	.st2{fill:none;stroke:#F29438;stroke-width:5.5986;stroke-linecap:round;stroke-miterlimit:10;}
</style>
<g>
	<path class="st0" d="M79.5,47.2c-0.4,0-0.8,0-1.1,0c-2.9,0-5,0.6-6.3,1.8c-1.2,1.1-1.9,3-2,5.6c-0.1,1.9,0.6,3.6,2.1,5.1   c2.4,2.6,6.6,4.1,11.4,4.2c2.8,0.1,5.2-0.1,7.4-0.4c-0.7-5.6-2.5-10.2-5-13C84.2,48.4,82,47.3,79.5,47.2z"></path>
	<path class="st0" d="M69.9,0.9C32.5,0.9,2.1,31.3,2.1,68.8c0,37.5,30.3,67.8,67.8,67.8s67.8-30.4,67.8-67.8   C137.7,31.3,107.3,0.9,69.9,0.9z M118.5,55.9c-6.6,6.2-11.9,11.1-19.1,13.7c0,1.8-0.1,3.6-0.2,5.5C97,102.1,76.7,109.3,65,109.3   c-8.2,0-16-3.4-22-9.5C35.9,92.6,32,82,32.2,70.1c0.2-13.6,6.2-26.4,15.7-33.3c6.1-4.5,13-6,19.4-4.1c2.1,0.6,3.3,2.9,2.7,5   c-0.6,2.1-2.9,3.3-5,2.7c-3.9-1.2-8.3-0.1-12.4,2.8c-7.5,5.5-12.2,15.8-12.4,27c-0.2,9.7,2.8,18.2,8.5,24   c4.5,4.6,10.3,7.1,16.3,7.1c2.5,0,24.1-0.8,26.2-26.8c0.1-1,0.1-2,0.2-3c-2.4,0.3-5,0.4-8,0.4c-7-0.2-13.2-2.6-17.1-6.7   c-2.9-3.1-4.4-6.8-4.2-10.9c0.2-4.8,1.7-8.6,4.6-11.2c3.1-2.9,7.6-4.2,13.2-3.9c4.7,0.2,8.9,2.3,12.2,6c3.4,3.9,5.7,9.4,6.7,16   c4.8-2.3,8.8-6,14.3-11.2l0.3-0.3c1.6-1.5,4.2-1.4,5.7,0.2c1.5,1.6,1.4,4.2-0.2,5.7L118.5,55.9z"></path>
</g>
<line class="st1" x1="161.7" y1="51.4" x2="225.4" y2="51.4"></line>
<path class="st1" d="M202.1,31.9c0,0,0,58.6,0,63c0,4.3-3.1,5.7-14.3,3.2"></path>
<path class="st1" d="M198.9,53.4c0,0-7.8,13.7-15.1,20c-7.3,6.3-20,15.4-20,15.4"></path>
<path class="st1" d="M253.9,39.1c0,0,0,46.1,0,50.2c0,4.1,0.1,6.8,4.9,5.1c4.8-1.7,16.8-6.8,25.9-13.7c9.2-7,15.9-14,19.4-19.3"></path>
<path class="st1" d="M376,35c0,0-20.6,27-49.8,38.8"></path>
<line class="st1" x1="358.9" y1="54.4" x2="358.9" y2="101.3"></line>
<path class="st1" d="M406.7,41.2c0,0,13.9,8.8,18.4,12.8"></path>
<path class="st1" d="M463.4,51c0,0-7.8,20.3-21.2,29.9s-34,14.8-34,14.8"></path>
<line class="st1" x1="498.4" y1="39.1" x2="538.1" y2="39.1"></line>
<line class="st1" x1="485" y1="60.6" x2="553.1" y2="60.6"></line>
<path class="st1" d="M520.5,60.6c0,0,2.1,29.8-21,39.4"></path>
<path class="st2" d="M546.6,31.8c0,0,4.5,5.1,5.5,7.2"></path>
<path class="st2" d="M555.2,26.6c0,0,4.3,4,5.5,6.4"></path>
<line class="st1" x1="571.2" y1="52.1" x2="643.1" y2="52.1"></line>
<line class="st1" x1="592.8" y1="33" x2="592.8" y2="73.7"></line>
<path class="st1" d="M621.9,31.8c0,0,0,9.2,0,30.9s-13,31.3-24,37.8"></path>
<path class="st2" d="M635,31.8c0,0,4.6,5.3,5.5,7.2"></path>
<path class="st2" d="M643.1,26.1c0,0,4.2,4,6,6.9"></path>
<path class="st1" d="M707.5,34.5c0,0-21.3,27.9-50.3,39.5"></path>
<line class="st1" x1="689.9" y1="53.1" x2="689.9" y2="101.3"></line>
<path class="st1" d="M737.7,41.1c0,0,12,7.3,18.6,12.6"></path>
<path class="st1" d="M794.5,50.9c0,0-7.9,20.3-20.6,29.7c-15.4,11.5-34.6,15.1-34.6,15.1"></path>
</svg>
